<?xml version="1.0" standalone="no"?>
<!DOCTYPE svg PUBLIC "-//W3C//DTD SVG 20010904//EN"
 "http://www.w3.org/TR/2001/REC-SVG-20010904/DTD/svg10.dtd">
<svg version="1.0" xmlns="http://www.w3.org/2000/svg"
 width="1014.000000pt" height="1014.000000pt" viewBox="0 0 1014.000000 1014.000000"
 preserveAspectRatio="xMidYMid meet">
<metadata>
Created by potrace 1.11, written by Peter Selinger 2001-2013
</metadata>
<g transform="translate(0.000000,1014.000000) scale(0.100000,-0.100000)"
fill="#000000" stroke="none">
<path d="M4010 10130 c0 -5 -13 -10 -30 -10 -21 0 -30 -5 -30 -16 0 -10 -5
-14 -16 -10 -9 3 -12 2 -9 -5 4 -6 -12 -32 -34 -60 -99 -116 -126 -244 -93
-445 6 -37 5 -54 -5 -63 -11 -10 -11 -15 2 -27 8 -9 12 -21 8 -27 -3 -7 -23
-37 -43 -67 -67 -103 -101 -169 -131 -257 -41 -120 -53 -182 -100 -499 -18
-123 -40 -405 -35 -451 22 -212 52 -338 105 -443 28 -55 42 -129 45 -249 l1
-54 -39 -13 c-57 -20 -66 -31 -66 -83 0 -37 -6 -54 -30 -81 -24 -29 -29 -44
-30 -88 0 -67 11 -87 54 -102 42 -13 60 -34 76 -85 31 -100 93 -245 113 -266
36 -37 85 -78 89 -74 2 2 55 -5 118 -16 181 -32 388 -13 446 42 28 26 57 100
75 188 14 72 32 65 23 -9 -5 -44 -4 -44 10 -20 14 24 28 85 31 140 3 68 6 80
21 94 11 11 34 16 78 16 76 0 87 -10 117 -100 26 -81 100 -227 134 -268 65
-78 323 -94 565 -35 95 23 173 67 198 111 19 35 72 242 72 283 0 30 33 55 81
63 36 6 53 17 96 64 35 38 53 51 53 40 0 -10 4 -18 9 -18 6 0 9 9 8 20 -1 11
-6 20 -12 20 -5 0 3 11 18 25 25 24 29 25 48 12 11 -9 16 -18 11 -21 -6 -3
-13 0 -15 6 -4 8 -6 7 -6 -4 -1 -9 -7 -18 -13 -21 -7 -2 -11 -7 -8 -10 3 -3
24 2 47 13 l41 18 -6 -22 c-2 -11 -16 -34 -31 -49 -18 -20 -21 -26 -8 -22 9 4
17 11 17 16 0 5 5 9 11 9 6 0 9 -7 5 -15 -3 -9 0 -15 8 -15 8 0 16 6 19 13 6
16 27 -37 27 -69 0 -13 -4 -24 -10 -24 -5 0 -10 -4 -10 -10 0 -5 7 -10 15 -10
9 0 20 -11 27 -24 10 -23 12 -23 26 -9 11 10 17 12 20 4 5 -16 22 -14 22 3 0
8 9 18 20 21 11 4 18 12 14 18 -3 7 9 -3 26 -21 17 -19 33 -32 35 -30 7 8 45
98 45 107 0 17 20 13 27 -5 3 -8 11 -13 19 -10 7 3 31 -8 53 -25 23 -16 45
-29 50 -29 5 0 11 -9 14 -20 3 -12 14 -20 25 -20 11 0 40 -20 64 -45 45 -47
65 -57 53 -27 -5 13 -4 14 6 5 21 -21 10 -101 -26 -197 -18 -50 -43 -120 -56
-156 -28 -85 -70 -160 -134 -240 -28 -36 -62 -82 -74 -102 -12 -21 -34 -47
-48 -58 -29 -23 -28 -37 6 -160 44 -153 55 -253 56 -490 0 -124 2 -211 3 -195
2 17 7 35 12 40 4 6 11 43 15 83 4 40 10 71 13 68 3 -3 11 -1 18 5 15 13 18 7
34 -61 17 -81 21 -90 29 -90 5 0 0 30 -10 68 -47 166 -52 195 -35 204 17 10
22 38 7 38 -9 0 6 39 34 90 8 14 21 24 28 24 11 -1 13 9 9 40 -9 67 -5 113 11
143 9 15 19 37 23 48 6 15 9 8 14 -30 6 -42 7 -44 9 -15 1 19 4 46 8 59 4 17
3 22 -5 17 -14 -8 -15 19 -2 49 7 17 9 16 11 -10 1 -19 5 -8 11 30 5 33 11 67
15 75 3 8 5 27 4 43 -2 15 2 27 8 27 7 0 11 22 11 53 0 75 19 179 36 198 8 8
14 23 14 32 0 9 3 17 8 17 4 0 7 12 8 28 0 15 9 73 20 130 17 94 20 102 39 96
16 -6 18 -4 8 7 -6 8 -11 16 -11 19 -1 3 -5 18 -11 33 -8 21 -7 43 3 85 26
100 40 147 48 153 5 3 8 16 7 30 0 13 2 33 4 44 3 11 6 35 6 54 1 26 4 32 17
27 14 -5 15 -2 9 21 -5 16 -9 54 -10 86 -1 44 2 60 14 67 9 5 12 10 7 10 -6 0
1 10 14 22 16 16 20 23 10 26 -9 3 -6 10 11 23 20 15 21 19 7 19 -10 0 -19 6
-20 13 -2 23 -5 32 -16 60 -7 16 -12 37 -12 47 0 10 -5 22 -11 26 -6 3 -9 15
-6 25 3 10 1 34 -3 54 -4 20 -4 38 1 41 5 3 6 16 3 28 -4 17 0 28 14 38 20 14
20 14 1 83 -22 80 -23 89 -9 80 10 -6 12 6 16 105 4 91 14 132 31 125 13 -4
14 7 10 77 -7 95 -33 231 -52 268 -13 26 -26 160 -15 160 3 0 14 18 24 40 17
39 15 100 -3 100 -4 0 -13 19 -20 43 -7 23 -19 63 -27 89 -13 40 -23 111 -26
183 0 11 -7 45 -14 76 -8 31 -13 67 -13 80 3 42 -64 264 -82 275 -5 3 -9 12
-9 20 0 42 -135 235 -242 346 l-46 48 -1181 0 c-781 0 -1181 -3 -1181 -10z
m1610 -142 c0 -4 -7 -5 -15 -2 -8 4 -15 16 -15 27 0 20 0 20 15 1 8 -10 15
-22 15 -26z m-309 -196 c-7 -2 -18 1 -23 6 -8 8 -4 9 13 5 13 -4 18 -8 10 -11z
m-1491 -140 c0 -7 -4 -10 -10 -7 -5 3 -10 16 -10 28 0 18 2 19 10 7 5 -8 10
-21 10 -28z m1094 -268 c3 -8 2 -12 -4 -9 -6 3 -10 10 -10 16 0 14 7 11 14 -7z
m21 -74 c3 -5 1 -10 -4 -10 -6 0 -11 5 -11 10 0 6 2 10 4 10 3 0 8 -4 11 -10z
m-646 -28 c8 -2 35 -25 60 -52 94 -101 241 -250 247 -250 3 0 2 5 -1 10 -12
20 4 9 39 -25 20 -19 43 -35 50 -35 8 0 21 -6 28 -13 14 -13 97 -42 112 -38 4
1 14 -3 20 -9 7 -5 16 -7 19 -3 4 3 7 1 7 -5 0 -6 15 -14 33 -17 17 -4 37 -10
42 -13 6 -4 16 -7 24 -9 7 -1 26 -14 42 -29 16 -15 34 -24 43 -21 17 7 70 -39
61 -53 -3 -5 0 -7 8 -4 9 3 39 -21 78 -63 153 -162 213 -221 220 -217 5 2 19
-12 33 -33 19 -27 22 -39 14 -44 -8 -5 -4 -11 12 -18 14 -5 38 -23 53 -40 16
-17 34 -28 40 -24 7 3 9 3 5 -1 -4 -5 2 -17 13 -29 10 -11 19 -29 19 -39 0
-10 5 -17 11 -16 6 2 20 -9 32 -24 16 -22 21 -45 23 -115 4 -104 10 -140 34
-213 10 -30 21 -79 25 -107 4 -29 11 -56 17 -59 7 -4 8 5 3 25 -4 19 -3 31 3
31 14 0 20 30 11 56 -9 26 7 56 19 36 5 -7 13 -12 18 -11 20 4 34 -2 34 -13 0
-32 22 -88 35 -88 10 0 13 -17 11 -75 -3 -69 3 -90 19 -65 12 19 24 10 34 -22
5 -18 10 -25 10 -15 1 24 21 22 21 -3 0 -11 5 -20 10 -20 6 0 10 -5 10 -11 0
-7 -9 -9 -21 -6 -15 4 -18 2 -10 -7 15 -18 -150 -166 -184 -166 -50 0 -55 8
-55 79 0 38 -5 75 -12 84 -16 21 -128 37 -238 35 -72 -1 -73 -2 -25 -8 35 -5
22 -6 -40 -4 -50 3 -84 1 -77 -4 7 -5 -14 -9 -50 -9 -122 -1 -330 -79 -457
-171 -36 -27 -97 -67 -134 -89 -58 -35 -74 -41 -105 -36 -46 8 -187 72 -245
111 -102 71 -216 108 -418 138 -96 14 -116 20 -113 33 1 9 5 32 9 52 6 38 45
89 68 89 31 0 114 -34 135 -56 24 -26 62 -32 62 -11 0 7 3 8 8 2 13 -18 71
-55 87 -55 8 0 15 -3 15 -8 0 -7 82 -31 123 -36 9 -1 30 -12 47 -24 24 -18 28
-19 23 -5 -4 10 -2 14 4 10 18 -11 3 35 -23 70 -25 33 -31 48 -14 38 18 -11
11 8 -12 32 -12 13 -26 23 -31 23 -5 0 -15 8 -22 17 -11 15 -15 15 -29 4 -11
-9 -16 -10 -16 -2 0 6 -11 16 -25 23 -13 6 -22 16 -18 22 3 6 0 6 -7 -1 -11
-10 -17 -8 -31 9 -10 11 -30 21 -44 21 -14 0 -30 7 -35 17 -6 10 -23 21 -40
25 -16 4 -30 11 -30 17 0 7 -14 8 -35 5 -19 -3 -37 -2 -40 2 -7 13 -57 0 -84
-20 -34 -27 -40 -24 -35 19 6 48 5 265 -1 271 -3 2 3 10 13 17 16 13 16 13 0
14 -16 0 -17 12 -13 133 3 72 9 173 14 222 6 50 13 135 16 190 4 54 11 107 16
116 4 9 11 32 13 50 9 63 43 185 60 211 9 13 13 28 9 31 -3 4 -1 7 5 7 9 0 24
28 27 50 0 3 15 20 33 38 17 18 32 39 32 47 0 8 5 15 10 15 6 0 10 7 10 15 0
10 10 15 31 15 23 0 30 4 26 14 -4 9 2 17 14 21 10 4 19 13 19 22 0 11 8 14
30 11 30 -5 41 6 18 15 -7 3 4 4 25 3 21 -1 37 2 37 8 0 7 3 8 8 1 4 -5 13
-11 21 -13z m1624 -1667 c-3 -9 -8 -14 -10 -11 -3 3 -2 9 2 15 9 16 15 13 8
-4z m-626 -131 c-3 -3 -12 -4 -19 -1 -8 3 -5 6 6 6 11 1 17 -2 13 -5z m225
-45 c75 -16 108 -35 124 -74 20 -50 29 -234 15 -340 -31 -236 -68 -275 -306
-323 -113 -23 -273 -28 -353 -11 -66 13 -109 50 -149 126 -35 67 -68 161 -59
170 3 4 6 -2 6 -13 0 -16 2 -16 10 -4 5 8 12 11 16 7 4 -3 1 -14 -6 -22 -9
-11 -10 -19 -3 -26 14 -14 53 36 53 67 0 23 -23 54 -41 54 -5 0 -11 11 -15 25
-9 35 -33 53 -45 34 -7 -10 -9 3 -6 41 4 50 8 58 54 100 63 58 169 110 306
150 121 36 157 35 81 -2 -56 -27 -191 -137 -186 -151 1 -5 -5 -20 -13 -34 -9
-14 -15 -27 -12 -29 9 -9 33 9 67 51 29 36 67 65 85 65 2 0 7 -17 10 -37 15
-96 55 -129 97 -81 11 13 22 18 26 13 10 -14 67 -12 85 4 9 7 21 28 27 47 9
28 15 33 25 24 10 -8 11 -19 5 -34 -7 -19 -4 -27 19 -44 32 -23 65 -22 109 5
l32 20 -25 23 c-14 13 -25 29 -25 37 0 18 10 16 27 -4 8 -10 3 5 -12 32 -32
59 -59 86 -111 114 -39 21 -90 29 -80 12 3 -5 -14 -11 -39 -13 -30 -2 -45 1
-45 9 0 22 167 30 252 12z m-1675 -65 c-3 -3 -12 -4 -19 -1 -8 3 -5 6 6 6 11
1 17 -2 13 -5z m312 -40 c2 -2 2 -6 0 -9 -8 -7 -49 7 -49 17 0 8 38 2 49 -8z
m-521 -20 c-7 -15 -14 -21 -16 -15 -2 7 2 18 8 26 18 22 21 18 8 -11z m112
-22 c0 -26 17 -88 39 -146 11 -26 13 -27 24 -12 11 15 17 16 39 6 14 -7 30
-22 36 -34 10 -23 38 -30 59 -14 7 5 14 5 18 -2 4 -6 19 0 40 16 33 25 34 27
19 50 -22 32 -11 70 26 89 33 17 31 20 45 -67 3 -21 12 -44 20 -51 17 -17 64
-11 72 10 4 10 9 11 18 3 8 -7 25 -8 42 -3 15 4 34 6 41 5 7 -2 12 7 12 22 0
14 4 27 10 31 10 6 50 -29 50 -45 0 -5 11 -10 25 -10 14 0 25 3 25 8 0 20 -68
86 -117 114 -30 17 -52 33 -49 35 7 7 118 -62 142 -89 41 -44 47 -69 46 -178
-1 -105 -22 -231 -48 -282 -35 -68 -135 -95 -314 -84 -162 10 -277 43 -322 93
-24 26 -74 162 -97 263 -24 108 -37 215 -24 207 6 -4 31 18 57 49 50 57 66 61
66 16z m250 28 c0 -5 -5 -10 -11 -10 -5 0 -7 5 -4 10 3 6 8 10 11 10 2 0 4 -4
4 -10z m1269 1 c9 -6 10 -11 2 -15 -13 -8 -31 1 -31 15 0 11 11 11 29 0z
m-1431 -37 c-4 -3 0 -21 8 -39 18 -44 18 -55 -2 -55 -8 0 -12 -4 -9 -10 3 -5
2 -10 -3 -10 -5 0 -9 27 -8 60 0 33 4 60 10 60 5 0 7 -3 4 -6z m2847 -24 c3
-5 1 -10 -4 -10 -6 0 -11 5 -11 10 0 6 2 10 4 10 3 0 8 -4 11 -10z m-2484 -15
c-1 -15 -24 -12 -29 3 -3 9 2 13 12 10 10 -1 17 -7 17 -13z m1069 -4 c0 -6 -4
-13 -10 -16 -5 -3 -10 1 -10 9 0 9 5 16 10 16 6 0 10 -4 10 -9z m1048 -11 c9
-16 10 -31 1 -68 -15 -60 -27 -74 -27 -31 -1 19 -2 41 -3 49 -4 28 1 70 9 70
4 0 13 -9 20 -20z m370 -97 c-2 -48 -8 -88 -14 -90 -5 -2 -16 20 -24 49 -9 39
-10 53 -1 56 6 2 9 8 5 13 -8 13 6 50 17 44 5 -4 9 -1 9 4 0 6 2 11 5 11 3 0
5 -39 3 -87z m-2493 47 c3 -5 1 -10 -4 -10 -6 0 -11 5 -11 10 0 6 2 10 4 10 3
0 8 -4 11 -10z m594 -165 l0 -20 -9 20 c-5 11 -9 29 -9 40 l0 20 9 -20 c5 -11
9 -29 9 -40z m1661 -1406 c0 -5 -4 -8 -9 -5 -5 4 -12 0 -14 -6 -3 -8 -6 -6 -6
5 -1 9 6 17 14 17 8 0 15 -5 15 -11z"/>
<path d="M5135 8690 c3 -5 8 -10 11 -10 2 0 4 5 4 10 0 6 -5 10 -11 10 -5 0
-7 -4 -4 -10z"/>
<path d="M5246 7823 c-3 -4 -16 -8 -28 -10 -12 -2 -29 -10 -38 -18 -9 -8 -19
-12 -22 -9 -3 3 -5 -3 -4 -13 0 -9 -5 -18 -11 -19 -7 -1 -14 -2 -15 -4 -2 -1
-13 -3 -25 -4 -13 -2 -34 -15 -48 -30 -14 -15 -29 -25 -34 -22 -13 8 -34 -21
-26 -35 8 -12 -12 -29 -35 -29 -13 0 -13 1 0 10 8 5 11 12 7 16 -11 11 -36
-16 -30 -33 5 -12 3 -14 -8 -8 -11 7 -11 5 1 -10 8 -10 10 -16 3 -12 -12 8
-24 -9 -43 -58 -7 -17 -7 -24 0 -20 6 3 10 12 10 19 0 7 7 21 15 32 14 18 15
17 6 -8 -9 -24 -7 -27 17 -36 46 -16 77 -10 80 16 3 18 8 21 32 17 18 -3 32 1
41 11 16 19 89 57 90 47 0 -5 4 2 10 15 5 13 16 23 26 21 31 -3 39 1 23 11
-12 8 -11 10 7 10 16 0 21 4 17 15 -4 8 -1 15 4 15 6 0 14 10 17 21 4 13 10
17 14 11 7 -11 94 -14 144 -5 15 2 25 8 22 13 -3 5 9 4 27 -1 18 -5 35 -14 36
-19 2 -6 15 -10 28 -10 15 0 23 -4 19 -11 -4 -5 7 -15 24 -22 17 -6 31 -15 31
-19 0 -4 5 -8 12 -8 6 0 25 -10 42 -23 54 -41 56 -39 25 20 -29 57 -107 142
-145 158 -19 7 -107 14 -194 15 -31 0 -49 -5 -57 -17 -7 -9 -13 -11 -13 -5 0
7 -4 12 -10 12 -5 0 -10 -7 -10 -15 0 -8 -9 -15 -20 -15 -11 0 -20 -4 -20 -10
0 -5 -4 -10 -10 -10 -16 0 1 29 21 35 10 4 19 13 19 21 0 15 -12 19 -24 7z
m-26 -37 c0 -2 -9 -6 -20 -9 -11 -3 -18 -1 -14 4 5 9 34 13 34 5z m221 -44
c-7 -2 -18 1 -23 6 -8 8 -4 9 13 5 13 -4 18 -8 10 -11z m-194 -38 c-3 -3 -12
-4 -19 -1 -8 3 -5 6 6 6 11 1 17 -2 13 -5z m-227 -29 c0 -8 -4 -15 -10 -15 -5
0 -7 7 -4 15 4 8 8 15 10 15 2 0 4 -7 4 -15z m-20 -119 c0 -2 -7 -6 -15 -10
-8 -3 -15 -1 -15 4 0 6 7 10 15 10 8 0 15 -2 15 -4z"/>
<path d="M4891 7594 c0 -11 3 -14 6 -6 3 7 2 16 -1 19 -3 4 -6 -2 -5 -13z"/>
<path d="M4842 7545 c0 -16 2 -22 5 -12 2 9 2 23 0 30 -3 6 -5 -1 -5 -18z"/>
<path d="M5860 7460 c0 -11 5 -20 10 -20 6 0 10 9 10 20 0 11 -4 20 -10 20 -5
0 -10 -9 -10 -20z"/>
<path d="M4999 7333 c-13 -16 -12 -17 4 -4 9 7 17 15 17 17 0 8 -8 3 -21 -13z"/>
<path d="M4976 7301 c-4 -7 -5 -15 -2 -18 9 -9 19 4 14 18 -4 11 -6 11 -12 0z"/>
<path d="M4355 7115 c51 -15 62 -14 50 4 -3 6 -27 11 -53 10 l-47 -1 50 -13z"/>
<path d="M4006 7093 c-4 -9 -1 -11 5 -7 6 4 14 1 18 -5 5 -8 13 -5 25 8 17 19
17 20 -13 19 -16 -1 -32 -7 -35 -15z"/>
<path d="M4085 7100 c-3 -5 1 -10 9 -10 9 0 16 5 16 10 0 6 -4 10 -9 10 -6 0
-13 -4 -16 -10z"/>
<path d="M3975 7060 c-3 -5 -1 -10 4 -10 6 0 11 5 11 10 0 6 -2 10 -4 10 -3 0
-8 -4 -11 -10z"/>
<path d="M3651 7034 c0 -11 3 -14 6 -6 3 7 2 16 -1 19 -3 4 -6 -2 -5 -13z"/>
<path d="M3790 9973 c-6 -27 -14 -54 -16 -61 -2 -7 0 -11 5 -8 5 3 11 16 14
28 3 13 10 38 15 56 6 17 7 32 3 32 -5 0 -14 -21 -21 -47z"/>
<path d="M3766 9860 c-5 -19 -14 -38 -20 -42 -8 -5 -8 -10 1 -19 8 -8 14 -2
23 25 6 20 10 44 8 53 -3 11 -7 5 -12 -17z"/>
<path d="M3752 9700 c-1 -54 5 -87 19 -120 13 -30 17 -35 13 -15 -4 17 -13 71
-19 120 l-12 90 -1 -75z"/>
<path d="M6106 6280 c-6 -15 -25 -100 -71 -310 -14 -63 -34 -151 -45 -195 -11
-44 -29 -125 -40 -180 -12 -55 -26 -118 -31 -141 -6 -23 -9 -50 -8 -60 2 -10
0 -25 -4 -31 -5 -8 -3 -13 3 -13 6 0 8 -5 5 -10 -4 -6 -8 -27 -10 -48 l-4 -37
13 30 c8 17 18 41 24 55 8 19 10 1 8 -73 -1 -54 0 -99 2 -102 5 -5 13 -186 14
-317 0 -83 4 -108 14 -108 22 0 26 -60 9 -150 -8 -47 -24 -141 -35 -210 -50
-307 -91 -488 -189 -835 -21 -77 -45 -169 -51 -205 -20 -110 -69 -307 -121
-488 -27 -95 -74 -270 -104 -388 -30 -118 -57 -219 -59 -222 -10 -17 -237
-807 -285 -992 -22 -85 -82 -285 -134 -445 -118 -359 -237 -760 -237 -797 0
-5 925 -8 2056 -8 l2057 0 -7 322 c-4 178 -12 357 -17 398 -6 41 -16 233 -24
425 -14 350 -16 373 -75 725 -11 63 -24 185 -30 272 -13 215 -40 331 -142 623
-62 178 -104 241 -183 276 -22 9 -56 32 -75 51 -19 18 -71 65 -114 103 -44 39
-98 87 -120 108 -65 60 -263 206 -386 282 -224 140 -266 173 -564 448 -23 21
-61 52 -86 69 -99 69 -189 144 -267 225 -73 74 -83 89 -89 131 -4 26 -13 63
-20 82 -14 36 -14 191 0 241 4 15 3 29 -2 33 -5 3 -4 24 3 53 14 54 12 65 -13
56 -13 -5 -14 -3 -5 7 8 9 9 20 2 38 -7 17 -6 29 1 36 8 8 9 6 5 -6 -4 -11 -2
-18 4 -18 6 0 11 7 11 15 0 8 5 15 10 15 6 0 10 4 10 10 0 5 -7 7 -16 3 -12
-4 -14 0 -8 23 4 16 11 31 16 32 16 7 8 21 -12 19 -11 -1 -20 -7 -20 -14 0 -7
-4 -13 -10 -13 -14 0 9 48 26 54 8 3 14 1 14 -4 0 -6 4 -10 10 -10 5 0 7 7 4
15 -4 8 -15 15 -26 15 -11 0 -18 5 -15 13 2 6 10 12 17 12 7 0 15 6 18 13 2 7
-2 10 -11 6 -8 -3 -18 0 -23 7 -4 7 -2 15 4 17 7 2 10 7 8 11 -11 17 -15 100
-6 106 6 3 10 18 10 33 -1 23 -2 24 -11 10 -6 -11 -16 -15 -26 -11 -9 4 -14 2
-10 -3 3 -6 2 -16 -2 -23 -6 -9 -10 -5 -13 13 -4 18 -1 26 8 26 8 0 14 5 14
10 0 6 -7 10 -16 10 -29 0 -10 35 21 40 24 4 31 11 33 34 3 26 2 28 -12 13 -9
-8 -16 -20 -16 -26 0 -6 -9 -11 -19 -11 -11 0 -23 -4 -26 -10 -12 -19 -38 -11
-32 10 3 11 1 23 -4 26 -5 3 -9 -6 -9 -20 0 -13 -7 -32 -16 -40 -14 -15 -14
-17 0 -22 9 -3 16 -16 16 -27 0 -20 0 -21 -16 -1 -15 18 -15 17 -10 -12 l5
-31 -46 5 c-30 3 -44 1 -40 -5 4 -6 -5 -32 -19 -59 -20 -38 -24 -52 -15 -66
12 -19 4 -51 -11 -42 -5 3 -7 12 -4 20 3 7 1 16 -4 19 -6 3 -20 28 -31 56 -12
27 -25 49 -29 49 -4 0 -17 -51 -30 -112 -27 -130 -85 -324 -101 -334 -33 -20
-56 94 -70 361 -12 224 -6 458 17 615 24 167 65 320 89 340 28 23 17 40 -24
40 -35 0 -44 6 -80 47 -29 34 -42 43 -45 33z m424 -981 c0 -12 -39 -17 -43 -5
-3 6 6 11 19 11 13 0 24 -3 24 -6z m150 -125 c0 -2 -7 -4 -15 -4 -8 0 -15 4
-15 10 0 5 7 7 15 4 8 -4 15 -8 15 -10z m-210 -24 c0 -5 -5 -10 -11 -10 -5 0
-7 5 -4 10 3 6 8 10 11 10 2 0 4 -4 4 -10z"/>
<path d="M6260 6114 c0 -8 5 -12 10 -9 6 4 8 11 5 16 -9 14 -15 11 -15 -7z"/>
<path d="M4719 6103 c-26 -16 -67 -73 -52 -73 4 0 16 11 28 25 15 19 33 27 73
32 55 6 58 16 7 26 -19 3 -40 0 -56 -10z"/>
<path d="M6600 6080 c0 -19 3 -21 12 -12 9 9 9 15 0 24 -9 9 -12 7 -12 -12z"/>
<path d="M4417 6084 c-9 -10 2 -24 18 -24 9 0 12 6 9 15 -6 16 -17 19 -27 9z"/>
<path d="M6581 5974 c0 -11 3 -14 6 -6 3 7 2 16 -1 19 -3 4 -6 -2 -5 -13z"/>
<path d="M6256 5950 c-13 -38 -36 -209 -47 -355 -15 -202 0 -562 21 -524 15
27 61 271 71 382 11 116 7 264 -12 402 -13 88 -24 121 -33 95z"/>
<path d="M6560 5884 c-6 -16 -12 -34 -15 -41 -2 -7 2 -10 9 -7 8 3 16 20 19
37 6 42 0 47 -13 11z"/>
<path d="M6610 5754 c0 -3 8 -18 18 -32 10 -15 26 -59 34 -98 14 -69 14 -73
-4 -88 -10 -9 -16 -21 -13 -25 3 -5 16 0 29 12 14 12 21 26 16 32 -4 5 -13 42
-19 80 -16 94 -19 103 -42 115 -10 6 -19 8 -19 4z"/>
<path d="M5129 5716 c-25 -7 -54 -18 -65 -25 -17 -11 -16 -12 11 -8 17 3 45 9
62 15 26 8 36 7 47 -4 8 -8 22 -14 30 -14 10 0 16 -9 16 -22 0 -21 0 -21 21
-2 17 16 22 16 29 4 6 -10 10 -11 10 -3 0 7 12 19 27 26 l27 15 -32 16 c-37
19 -117 20 -183 2z"/>
<path d="M4287 5685 c-28 -20 -21 -57 20 -95 20 -19 41 -35 46 -35 6 0 17 -20
25 -45 14 -44 51 -105 58 -98 5 6 -24 99 -36 113 -5 6 -7 28 -3 49 4 26 9 33
14 24 7 -10 9 -9 9 4 0 14 5 15 38 6 20 -5 42 -14 47 -18 11 -8 65 -19 65 -13
0 2 -15 10 -32 18 -19 8 -26 14 -15 15 9 0 17 4 17 9 0 19 -32 32 -116 47 -48
8 -95 19 -104 24 -9 5 -22 3 -33 -5z"/>
<path d="M6460 5635 c0 -5 5 -17 10 -25 5 -8 10 -10 10 -5 0 6 -5 17 -10 25
-5 8 -10 11 -10 5z"/>
<path d="M6483 5563 c0 -18 4 -33 9 -33 10 0 9 18 -2 45 -6 16 -8 14 -7 -12z"/>
<path d="M5156 5474 c-4 -9 -4 -19 -1 -22 3 -3 11 0 17 6 9 9 9 15 1 23 -7 7
-12 5 -17 -7z"/>
<path d="M6597 5453 c-4 -3 -7 -11 -7 -17 0 -6 5 -5 12 2 6 6 9 14 7 17 -3 3
-9 2 -12 -2z"/>
<path d="M6490 5410 c0 -5 7 -10 16 -10 8 0 12 5 9 10 -3 6 -10 10 -16 10 -5
0 -9 -4 -9 -10z"/>
<path d="M6652 5412 c-6 -2 -10 -8 -6 -13 8 -13 31 -11 37 4 5 14 -7 17 -31 9z"/>
<path d="M6386 5374 c-4 -14 -5 -29 -2 -31 3 -3 8 7 12 21 3 15 4 29 1 32 -2
3 -8 -7 -11 -22z"/>
<path d="M6497 5383 c-9 -8 -9 -53 -1 -53 3 0 11 6 18 13 11 10 11 17 1 30 -6
9 -15 14 -18 10z"/>
<path d="M6352 5330 c0 -14 2 -19 5 -12 2 6 2 18 0 25 -3 6 -5 1 -5 -13z"/>
<path d="M5877 5311 c-4 -17 -3 -21 5 -13 5 5 8 16 6 23 -3 8 -7 3 -11 -10z"/>
<path d="M6690 5240 c0 -5 5 -10 10 -10 6 0 10 5 10 10 0 6 -4 10 -10 10 -5 0
-10 -4 -10 -10z"/>
<path d="M6687 4709 c-4 -16 -3 -18 9 -8 7 6 11 15 8 20 -8 13 -11 11 -17 -12z"/>
<path d="M4213 4614 c-229 -192 -594 -377 -711 -358 -62 10 -132 -12 -239 -76
-108 -63 -192 -140 -224 -202 -41 -80 -120 -302 -145 -406 -31 -126 -31 -122
-22 -942 9 -812 22 -1012 84 -1314 64 -312 87 -487 119 -936 17 -236 22 -287
36 -342 l10 -38 288 0 289 0 6 33 c4 17 11 115 16 217 10 192 23 345 40 465 5
39 17 135 25 215 23 213 43 322 81 439 18 57 45 154 59 215 15 61 49 201 76
311 51 209 63 285 79 472 9 115 22 164 35 132 3 -9 10 -70 14 -135 4 -65 9
-101 10 -79 2 55 27 195 52 285 28 105 48 225 58 365 11 144 40 288 81 410 83
243 140 431 165 536 25 112 47 165 64 154 5 -2 9 -38 10 -79 1 -41 6 -90 12
-108 5 -18 9 -59 9 -90 0 -32 4 -58 9 -58 8 0 24 84 25 125 0 17 -25 197 -40
278 -16 91 -21 101 -69 147 -44 42 -90 131 -135 260 -37 108 -66 170 -80 170
-5 0 -44 -30 -87 -66z m354 -556 c-3 -7 -5 -2 -5 12 0 14 2 19 5 13 2 -7 2
-19 0 -25z m-707 -2434 c0 -8 -5 -12 -10 -9 -6 4 -8 11 -5 16 9 14 15 11 15
-7z"/>
<path d="M6700 4535 c0 -8 5 -15 10 -15 6 0 10 7 10 15 0 8 -4 15 -10 15 -5 0
-10 -7 -10 -15z"/>
<path d="M4680 4128 c0 -7 7 -51 15 -98 8 -47 15 -86 15 -88 0 -2 5 0 10 3 6
4 8 10 5 15 -3 5 -1 11 4 14 5 3 7 24 4 45 -8 59 2 90 27 84 13 -4 20 0 20 10
0 8 -13 17 -31 21 -48 9 -69 7 -69 -6z"/>
<path d="M4590 3664 c0 -8 5 -12 10 -9 6 3 10 10 10 16 0 5 -4 9 -10 9 -5 0
-10 -7 -10 -16z"/>
</g>
</svg>
